<svg width="56" height="67" viewBox="0 0 56 67" fill="none" xmlns="http://www.w3.org/2000/svg">
<path d="M55.9112 28.0021C55.8945 28.5678 55.8778 29.1335 55.8444 29.6992C55.811 30.2982 55.7441 30.8806 55.6606 31.4795C55.293 34.1084 54.541 36.6541 53.4215 39.0667C52.5692 40.8803 51.5499 42.5941 50.3468 44.1747C49.6116 45.1564 48.8095 46.1048 47.974 46.9866C47.7568 47.2196 47.5229 47.4359 47.3056 47.6688L42.5433 52.3942C42.4765 52.4607 42.3929 52.5273 42.3261 52.5938C42.3094 52.6105 42.2927 52.6105 42.276 52.5938C42.2258 52.5439 42.1757 52.5106 42.1256 52.4607L40.2039 50.514L38.0149 48.2845L32.9686 43.1764L29.3592 39.5159C28.4402 38.5842 27.5211 37.6524 26.6021 36.7207C26.552 36.6708 26.5018 36.6042 26.4517 36.5377C26.435 36.521 26.435 36.5044 26.4517 36.4877C26.5018 36.4378 26.5353 36.3879 26.5854 36.338L29.8605 32.9936L35.9596 26.7875L38.817 23.8757L41.758 20.8808C41.8248 20.8142 41.8749 20.7477 41.9418 20.6811C41.9585 20.6645 41.9585 20.6479 41.9418 20.6312C41.8916 20.5813 41.8582 20.5314 41.8081 20.4815L40.6384 19.3334L37.6807 16.4383C37.6306 16.3884 37.5805 16.3385 37.5304 16.3052C37.5136 16.2886 37.4969 16.2886 37.4802 16.3052C37.4301 16.3551 37.38 16.3884 37.3298 16.4383C36.7784 16.9874 36.227 17.5531 35.6756 18.1188L30.4454 23.4265L27.2036 26.7209L23.9619 30.0153C23.4439 30.5311 22.9259 31.0636 22.4246 31.5794C22.3745 31.6293 22.3077 31.6958 22.2575 31.7458C22.2241 31.7624 22.1907 31.7458 22.174 31.7291C22.1238 31.6293 22.057 31.5461 22.0069 31.4463C20.8038 29.2666 19.868 26.9372 19.233 24.5413C19.0158 23.7426 18.8487 22.944 18.715 22.1287C18.6315 21.6462 18.5646 21.147 18.5145 20.6479C18.4644 20.1487 18.431 19.6828 18.3975 19.2003C18.3474 18.4349 18.3474 17.6696 18.3641 16.9042C18.3808 16.4549 18.3975 16.0057 18.4477 15.5731C18.4811 15.3069 18.4978 15.0407 18.5312 14.7744C18.5646 14.475 18.6148 14.1588 18.6649 13.8593C18.7819 13.1605 18.9323 12.4617 19.1161 11.7629C19.5672 10.0158 20.2022 8.33534 21.021 6.73804C21.8732 5.07418 22.8758 3.49352 24.0288 2.02933C24.4632 1.48026 24.9144 0.931188 25.3823 0.398755C25.4491 0.332201 25.4992 0.265647 25.5661 0.199092C25.6329 0.1159 25.7332 0.0826227 25.8334 0.0826227C26.9196 -0.000569945 27.989 -0.0172085 29.0752 0.0160686C29.3258 0.0160686 29.5764 0.0327071 29.8104 0.0659842C29.8438 0.0659842 29.8939 0.0659842 29.9274 0.0826227C30.3451 0.0992613 30.7629 0.149177 31.1639 0.199092C31.6485 0.249008 32.1331 0.315562 32.6009 0.398755C33.5868 0.56514 34.5727 0.781441 35.5252 1.0643C38.5162 1.9295 41.3402 3.29386 43.8801 5.09082C45.4508 6.2056 46.9046 7.47013 48.208 8.86777C50.3803 11.1639 52.1515 13.8094 53.4716 16.6879C54.1901 18.2685 54.775 19.9324 55.1927 21.6295C55.3598 22.3117 55.5102 23.0105 55.6104 23.6927C55.694 24.2085 55.7608 24.7243 55.811 25.2567C55.8778 25.8557 55.9112 26.4547 55.9279 27.0703C55.8778 27.3532 55.8945 27.6693 55.9112 28.0021Z" fill="#FFA930"/>
<path d="M0 27.1868C0.0167099 26.7542 0.0167099 26.3216 0.0334198 25.8723C0.0501296 25.4897 0.0835494 25.1236 0.133679 24.7409C0.183809 24.2418 0.267358 23.7426 0.350908 23.2435C0.568136 21.8957 0.868914 20.5647 1.26995 19.2502C1.80467 17.4865 2.52319 15.7728 3.39211 14.1422C4.27773 12.5116 5.33045 10.9809 6.55027 9.56658C8.35494 7.48676 10.4938 5.67316 12.8666 4.22561C14.1366 3.4436 15.4566 2.76142 16.8269 2.17907C16.8937 2.1458 16.9605 2.12916 17.0274 2.11252C17.0441 2.11252 17.0441 2.11252 17.0608 2.11252C17.0942 2.11252 17.0942 2.12916 17.0775 2.16243C17.0274 2.24563 16.9939 2.31218 16.9438 2.39537C15.4734 4.77468 14.3037 7.33702 13.4849 10.0158C13.1507 11.1306 12.8666 12.2454 12.6661 13.3934C12.5658 13.9758 12.4656 14.5581 12.3987 15.1571C12.3653 15.4233 12.3486 15.6896 12.3152 15.9558C12.2818 16.3551 12.2483 16.7711 12.2149 17.1704C12.1982 17.2869 12.1982 17.4033 12.1982 17.5198C12.1815 18.202 12.1815 18.8842 12.1982 19.5663C12.2149 20.0655 12.2483 20.5647 12.2985 21.0472C12.3319 21.33 12.3486 21.5962 12.382 21.8791C12.4154 22.1952 12.4656 22.528 12.5157 22.8608C12.5993 23.3433 12.6828 23.8424 12.7831 24.325C12.9669 25.2567 13.2008 26.1552 13.4849 27.0537C14.1366 29.1335 14.9721 31.1468 16.0248 33.0768C16.5428 34.0419 17.1109 34.9903 17.7125 35.922C17.7459 35.9886 17.7793 36.0385 17.8127 36.105C17.8294 36.1217 17.8294 36.1383 17.8127 36.155C17.7626 36.2049 17.7292 36.2548 17.6791 36.3047L16.0916 37.9186L12.3653 41.6623L9.25727 44.8236C8.82282 45.2562 8.38836 45.7055 7.97061 46.1381C7.92048 46.188 7.85364 46.2546 7.80351 46.3045C7.78681 46.3211 7.75339 46.3211 7.71997 46.3045C7.66984 46.2712 7.63642 46.2213 7.58629 46.188C5.54768 44.0084 3.87669 41.5126 2.60674 38.8171C1.83809 37.1533 1.21982 35.4229 0.785364 33.6425C0.584846 32.8439 0.434457 32.0452 0.317488 31.2133C0.250648 30.7308 0.183809 30.2483 0.133679 29.7658C0.0501296 28.9172 0 28.052 0 27.1868Z" fill="#FFA930"/>
<path d="M38.1486 56.9864C38.1486 57.003 38.1486 57.0197 38.1319 57.0363C38.0651 57.1029 37.9982 57.1861 37.9314 57.2526L34.4223 60.7134L28.4569 66.6368C28.3901 66.7033 28.3065 66.7699 28.2397 66.8364C28.2063 66.8697 28.1394 66.8697 28.106 66.8364L27.8888 66.6201L25.3154 64.0411C23.8116 62.527 22.291 60.9963 20.7704 59.4822L12.4655 51.1463C12.382 51.0631 12.3152 50.9965 12.2316 50.9133C12.1982 50.8801 12.1982 50.8468 12.2316 50.8135C12.2817 50.7636 12.3486 50.697 12.3987 50.6471C15.5736 47.4858 18.7485 44.3411 21.9401 41.1964C21.9902 41.1465 22.057 41.08 22.1071 41.0301C22.1406 40.9968 22.1907 40.9968 22.2074 41.0301L22.4246 41.2297L29.7101 48.534L37.8646 56.7202C37.9314 56.7867 37.9982 56.8699 38.0651 56.9365C38.1152 56.9531 38.1319 56.9698 38.1486 56.9864Z" fill="#FFA930"/>
</svg>
