<svg width="889" height="362" viewBox="0 0 889 362" fill="none" xmlns="http://www.w3.org/2000/svg">
<path d="M16 80.44V99H4.16V115H16V222.84C16 233.72 11.2 241.08 4.16 241.08V259H65.28V241.08C58.24 241.08 53.44 233.72 53.44 222.84V115H91.2V99H53.44C42.88 97.4 35.84 91.96 35.84 79.48C35.84 58.36 44.16 43.32 54.4 43.32C64.32 43.32 67.2 56.76 61.12 76.6V84.6L96.96 73.08C104.32 40.76 93.76 19 66.56 19C37.76 19 16 43.64 16 80.44ZM149.065 186.68C149.065 170.04 151.625 150.2 155.465 137.4C172.425 79.8 196.745 43.32 217.865 43.32C230.665 43.32 233.545 56.76 226.185 76.92V84.92L264.905 77.56C274.825 42.36 262.665 19 236.105 19C200.905 19 165.385 64.12 149.065 131.96L148.425 131L149.065 120.76V92.6H136.905C129.225 105.4 114.825 113.4 99.785 113.4V131.32C106.825 131.32 111.625 138.68 111.625 149.56V222.84C111.625 233.72 106.825 241.08 99.785 241.08V259H160.905V241.08C153.865 241.08 149.065 229.24 149.065 211V186.68ZM298.825 202.04C293.065 219.96 278.985 231.8 261.705 231.8C238.665 231.8 222.665 210.04 220.105 176.76C219.785 171 219.785 165.56 220.425 159.8L310.985 170.68V164.6C308.745 121.08 283.785 92.6 246.665 92.6C207.945 92.6 182.025 127.16 182.025 179C182.025 230.84 208.265 265.4 247.945 265.4C279.945 265.4 304.265 242.36 310.665 206.52L298.825 202.04ZM221.385 145.72C225.225 124.28 234.825 110.84 247.945 110.84C262.025 110.84 272.905 128.76 275.465 152.44L221.385 145.72ZM323.968 45.56C323.968 63.8 333.248 75.32 346.688 75.32C360.128 75.32 369.408 63.8 369.408 45.56C369.408 27.64 360.128 15.8 346.688 15.8C333.248 15.8 323.968 27.64 323.968 45.56ZM319.168 113.4V131.32C326.208 131.32 331.008 138.68 331.008 149.56V222.84C331.008 233.72 326.208 241.08 319.168 241.08V259H380.288V241.08C372.928 241.08 368.448 233.72 368.448 222.84V92.6H355.968C348.608 105.4 333.888 113.4 319.168 113.4ZM388.185 39.8V57.72C395.225 57.72 400.025 65.08 400.025 75.96V222.84C400.025 233.72 395.225 241.08 388.185 241.08V259H449.305V241.08C441.945 241.08 437.465 233.72 437.465 222.84V19H424.985C417.625 31.8 402.905 39.8 388.185 39.8ZM603.675 244.6V226.68C596.635 226.68 591.835 219.32 591.835 208.44V135.16C591.835 124.28 596.635 116.92 603.675 116.92V99H542.555V116.92C549.595 116.92 554.395 124.28 554.395 135.16V177.4C554.395 215.8 541.915 241.08 523.355 241.08C509.275 241.08 500.635 227.32 500.635 206.84V135.16C500.635 124.28 505.115 116.92 512.475 116.92V99H451.355V116.92C458.395 116.92 463.195 124.28 463.195 135.16V206.52C463.195 241.72 480.795 265.4 507.355 265.4C529.115 265.4 545.755 250.04 554.395 223.8L555.355 224.76L554.395 235V265.4H566.875C574.235 252.6 588.955 244.6 603.675 244.6ZM626.313 80.44V99H614.473V115H626.313V222.84C626.313 233.72 621.513 241.08 614.473 241.08V259H675.593V241.08C668.553 241.08 663.753 233.72 663.753 222.84V115H703.753C713.353 115 718.153 122.36 718.153 133.24V199.16C718.793 238.84 737.993 265.4 766.473 265.4C793.033 265.4 812.233 242.36 818.953 206.52L806.473 202.04C801.033 219.96 791.433 231.8 780.553 231.8C765.833 231.8 755.593 212.92 755.593 184.44V115.32H799.753V99H755.593V51H743.113C737.993 87.48 723.273 99 703.753 99H663.753C653.193 97.4 646.153 91.96 646.153 79.48C646.153 58.36 654.473 43.32 664.713 43.32C674.633 43.32 677.513 56.76 671.433 76.6V84.6L707.273 73.08C714.633 40.76 704.073 19 676.873 19C648.073 19 626.313 43.64 626.313 80.44Z" fill="#FFA930"/>
<g clip-path="url(#clip0_924_2)">
<path d="M886.37 74.84C885.98 74.9868 885.56 75.0353 885.146 74.9812C884.733 74.9271 884.339 74.7722 884 74.53C883.72 74.32 883.33 74.45 883.32 75.01C883.322 75.7551 883.186 76.4942 882.92 77.19C882.837 77.517 882.668 77.8159 882.431 78.0561C882.194 78.2963 881.898 78.4691 881.572 78.5567C881.246 78.6442 880.903 78.6434 880.577 78.5544C880.252 78.4654 879.956 78.2913 879.72 78.05C879.12 77.55 878.97 77.59 878.65 78.3C878.179 79.2782 877.422 80.0906 876.48 80.63C876.303 80.7447 876.103 80.8204 875.895 80.8522C875.686 80.884 875.473 80.8711 875.27 80.8143C875.067 80.7576 874.878 80.6584 874.716 80.5231C874.554 80.3879 874.422 80.2198 874.33 80.03C873.59 78.77 873.5 78.75 872.26 79.6C871.02 80.45 870.01 79.83 869.67 78.36C869.459 76.9638 869.402 75.5486 869.5 74.14C869.515 71.0438 868.39 68.0503 866.34 65.73C865.432 64.5392 864.296 63.54 863 62.79C862.882 62.7008 862.738 62.6525 862.59 62.6525C862.442 62.6525 862.298 62.7008 862.18 62.79C859.98 64.4717 857.308 65.4228 854.54 65.51C851.864 65.4368 849.285 64.4962 847.19 62.83C844.253 60.6357 841.513 58.1898 839 55.52C837.349 53.6495 835.467 51.9963 833.4 50.6C833.07 50.349 832.676 50.1939 832.264 50.1516C831.851 50.1092 831.435 50.1813 831.06 50.36C830.543 50.5933 829.982 50.7139 829.415 50.7139C828.848 50.7139 828.287 50.5933 827.77 50.36C827.343 50.1462 826.861 50.0671 826.388 50.1332C825.914 50.1992 825.472 50.4073 825.12 50.73C824.613 51.2922 823.947 51.6864 823.21 51.86C824.21 49.86 823.81 47.86 823.88 45.86C823.895 44.8107 824.141 43.7777 824.602 42.835C825.063 41.8923 825.727 41.0634 826.546 40.4076C827.365 39.7519 828.32 39.2856 829.34 39.0422C830.361 38.7988 831.423 38.7844 832.45 39C834.569 39.3932 836.634 40.0377 838.6 40.92C838.81 41.02 839.07 41.3 839.29 41.05C839.51 40.8 839.24 40.61 839.15 40.39C838.135 38.1654 836.698 36.1585 834.92 34.48C833.405 32.8886 832.444 30.851 832.18 28.67C831.834 25.0461 831.103 21.4693 830 18C828.778 14.1427 826.388 10.7602 823.16 8.32C822.724 8.02637 822.378 7.618 822.16 7.14C821.86 6.52 822 6.24 822.63 6C823.326 5.72022 824.104 5.72022 824.8 6C826.354 6.51947 827.79 7.34079 829.025 8.41678C830.261 9.49277 831.272 10.8022 832 12.27C832.4 13.07 832.42 13.07 833.13 12.54C833.28 12.4008 833.457 12.2946 833.65 12.2282C833.844 12.1618 834.049 12.1368 834.252 12.1547C834.456 12.1726 834.653 12.2331 834.832 12.3322C835.011 12.4313 835.167 12.5668 835.29 12.73C836.19 13.7585 836.943 14.9059 837.53 16.14C837.7 16.46 837.81 16.7 838.26 16.43C838.71 16.16 839.16 16.43 839.57 16.72C840.69 17.62 840.94 18.98 841.41 20.23C841.76 21.14 842.08 22.07 842.41 22.98C842.49 22.98 842.54 22.98 842.57 22.98C843.82 22.03 844.22 22.1 845.01 23.49C845.816 25.1244 846.343 26.8819 846.57 28.69C846.57 28.97 846.57 29.26 847.04 29.03C847.51 28.8 847.63 28.33 847.99 28.59C848.383 28.9441 848.647 29.4191 848.74 29.94C848.993 31.2081 849.127 32.497 849.14 33.79C849.21 35.34 849.33 36.9 849.44 38.45C849.44 38.6 849.44 38.79 849.7 38.92C849.874 37.9557 849.974 36.9795 850 36C850.14 34.26 850.14 32.5 850.42 30.77C850.617 29.3301 851.098 27.9437 851.834 26.6907C852.571 25.4377 853.548 24.3431 854.71 23.47C857.1 21.7503 859.397 19.9044 861.59 17.94C864.562 15.2536 867.034 12.0607 868.89 8.51C869.72 6.87 870.36 5.13 871.1 3.45C871.585 2.29618 872.284 1.24441 873.16 0.35C873.271 0.225319 873.412 0.130514 873.569 0.0742496C873.727 0.0179848 873.896 0.00205436 874.061 0.0279141C874.226 0.0537739 874.382 0.120599 874.515 0.222283C874.647 0.323967 874.752 0.457267 874.82 0.61C875.181 1.42227 875.309 2.31906 875.19 3.2L875 5.35C875 5.72 875.05 5.93 875.47 5.77C876.39 5.41 876.72 5.93 876.71 6.83C876.589 8.28659 876.321 9.72722 875.91 11.13C875.78 11.76 875.91 11.87 876.5 11.8C877.43 11.68 877.74 12.04 877.8 12.96C877.779 14.405 877.405 15.8228 876.71 17.09L875.91 18.99C876.198 19.04 876.492 19.04 876.78 18.99C877.78 18.85 878.18 19.33 877.94 20.29C877.456 22.1267 876.658 23.8658 875.58 25.43C874.75 26.67 873.89 27.87 873.01 29.07C872.71 29.48 872.81 29.59 873.26 29.63C873.523 29.6393 873.783 29.69 874.03 29.78C874.283 29.8272 874.52 29.9355 874.722 30.0954C874.924 30.2554 875.083 30.4621 875.186 30.6976C875.29 30.9331 875.334 31.1904 875.316 31.447C875.297 31.7036 875.216 31.9518 875.08 32.17C874.422 33.7653 873.394 35.181 872.08 36.3C871.14 37.18 870.14 38 869.15 38.87C869.45 39.16 869.87 39.09 870.15 39.24C870.84 39.54 871.47 39.89 871.55 40.72C871.582 41.0942 871.493 41.4689 871.294 41.7879C871.096 42.1069 870.8 42.3532 870.45 42.49C868.833 43.3354 867.13 44.0059 865.37 44.49L864.82 44.65C863.99 44.91 863.99 44.92 864.43 45.65C864.509 45.7531 864.565 45.8718 864.595 45.9982C864.625 46.1245 864.628 46.2558 864.603 46.3834C864.578 46.5109 864.527 46.6318 864.453 46.738C864.378 46.8443 864.282 46.9336 864.17 47C863.574 47.3964 862.929 47.7124 862.25 47.94C861.78 48.12 861.63 48.26 862.06 48.7C864.37 51.1662 866.93 53.3849 869.7 55.32C872.364 57.0432 875.417 58.0743 878.58 58.32C880.484 58.4799 882.377 58.7503 884.25 59.13C885.987 59.4533 887.537 60.4214 888.59 61.84C888.777 62.0548 888.899 62.318 888.943 62.5994C888.987 62.8807 888.95 63.1686 888.837 63.43C888.724 63.6913 888.54 63.9155 888.305 64.0765C888.07 64.2375 887.795 64.3288 887.51 64.34C887.034 64.3657 886.556 64.3657 886.08 64.34C886.732 65.0778 887.315 65.8746 887.82 66.72C888.006 67.1354 888.14 67.572 888.22 68.02C888.41 69.15 888.03 69.68 886.89 69.88C886.63 69.93 886.23 69.88 886.45 70.36C886.919 71.4142 887.108 72.5714 887 73.72L886.37 74.84ZM849.6 39.05V38.99C849.6 38.99 849.6 38.99 849.53 38.99V39.07L849.6 39.05Z" fill="#FFA930"/>
</g>
<defs>
<clipPath id="clip0_924_2">
<rect width="66.95" height="80.88" fill="white" transform="translate(822)"/>
</clipPath>
</defs>
</svg>
