<svg xmlns="http://www.w3.org/2000/svg" viewBox="0 0 347.14 414.69"><defs><style>.cls-1{fill:#fbc352;}.cls-2{fill:#fff;}</style></defs><title>Element 1</title><g id="Ebene_2" data-name="Ebene 2"><g id="Ebene_1-2" data-name="Ebene 1"><path fill="#fbc352" d="M347.14,181.05c-.13,3.38-.2,6.78-.41,10.17-.21,3.57-.57,7.13-1.06,10.67a158.84,158.84,0,0,1-13.4,45.59,173.51,173.51,0,0,1-18.44,30.75,187.31,187.31,0,0,1-14.27,16.93c-1.32,1.38-2.67,2.72-4,4.06l-28.46,28.4c-.42.41-.87.8-1.31,1.2a.21.21,0,0,1-.32,0c-.31-.28-.64-.53-.93-.83L253,316.28l-13.14-13.39-30.17-30.72L188,250.11l-16.52-16.83c-.33-.34-.65-.7-1-1.07a.33.33,0,0,1,0-.32,10.58,10.58,0,0,1,.83-.93q9.79-10,19.61-20.06l36.48-37.3q8.55-8.74,17.11-17.5l17.61-18c.37-.38.72-.79,1.06-1.2a.31.31,0,0,0,0-.32,12,12,0,0,0-.82-.92l-7-6.88L237.7,111.38a12.26,12.26,0,0,0-.94-.82.35.35,0,0,0-.33,0,12.07,12.07,0,0,0-.91.84q-5,5-9.87,10.09l-31.27,31.91L175,173.19,155.63,193l-9.24,9.45c-.34.34-.69.65-1,1a.39.39,0,0,1-.47-.1c-.33-.57-.67-1.13-1-1.7a182.14,182.14,0,0,1-16.58-41.54c-1.26-4.78-2.31-9.62-3.14-14.49q-.75-4.4-1.23-8.85c-.3-2.9-.53-5.81-.73-8.73a131.57,131.57,0,0,1-.17-13.76c.09-2.68.2-5.36.53-8,.19-1.59.29-3.2.48-4.8.23-1.83.47-3.66.78-5.48.72-4.23,1.59-8.43,2.65-12.59a149.81,149.81,0,0,1,11.36-30.2,173.77,173.77,0,0,1,18-28.32q3.9-5,8.09-9.77c.35-.4.75-.77,1.07-1.2a2,2,0,0,1,1.56-.69A185.23,185.23,0,0,1,186,12.8a36.93,36.93,0,0,1,4.46.25,5.52,5.52,0,0,0,.71,0c2.49.12,5,.42,7.45.69,2.9.31,5.78.73,8.65,1.22a161.8,161.8,0,0,1,17.53,4,165.23,165.23,0,0,1,50,24.23,170.81,170.81,0,0,1,25.9,22.66,174.27,174.27,0,0,1,31.46,47,168.82,168.82,0,0,1,10.29,29.67c1,4.1,1.86,8.25,2.53,12.42.5,3.12.93,6.25,1.25,9.39.36,3.62.64,7.24.74,10.88C347,177.22,347.07,179.12,347.14,181.05Z"/><path fill="#fbc352" d="M12.58,176.23c.06-2.63.08-5.25.19-7.87.09-2.26.31-4.52.54-6.77.3-3,.79-6,1.26-9a182.73,182.73,0,0,1,5.48-24A163.72,163.72,0,0,1,32.77,97.92,155.35,155.35,0,0,1,51.7,70.46,163.45,163.45,0,0,1,89.62,38.18a174.16,174.16,0,0,1,23.71-12.32l1.16-.45a.23.23,0,0,1,.16,0c.15,0,.19.14.11.28-.26.46-.52.93-.8,1.39a196,196,0,0,0-20.7,45.77,181.35,181.35,0,0,0-4.93,20.3c-.64,3.52-1.16,7-1.62,10.59-.21,1.6-.35,3.2-.48,4.81-.2,2.43-.38,4.87-.56,7.3,0,.72-.07,1.43-.09,2.15-.1,4.11-.13,8.22,0,12.34.1,3,.27,5.95.58,8.91.17,1.66.29,3.33.48,5,.23,1.95.47,3.9.78,5.84.48,2.94,1,5.87,1.59,8.79q1.69,8.32,4.19,16.44a200.28,200.28,0,0,0,15.16,36.19q4.69,8.75,10.11,17.05a11.59,11.59,0,0,1,.62,1.08.35.35,0,0,1,0,.33,11.84,11.84,0,0,1-.81.94l-9.51,9.69L86.62,263.21,68,282.23l-7.74,7.92c-.33.34-.68.67-1,1a.35.35,0,0,1-.48,0c-.27-.24-.53-.48-.77-.74a171.92,171.92,0,0,1-29.81-44.28A165,165,0,0,1,17.29,215c-1.15-4.81-2.12-9.65-2.84-14.54-.43-2.89-.81-5.79-1.07-8.69A145.64,145.64,0,0,1,12.58,176.23Z"/><path fill="#fbc352" d="M240.84,355.34c0,.11,0,.25-.11.32q-.6.66-1.23,1.29l-20.9,20.79L182.92,413.3c-.42.42-.85.83-1.29,1.24a.54.54,0,0,1-.79,0c-.43-.41-.85-.83-1.27-1.26l-15.35-15.47-27.17-27.4q-24.84-25-49.67-50.12c-.46-.46-.91-.94-1.36-1.41a.44.44,0,0,1,0-.63c.33-.35.66-.69,1-1l57.09-56.85c.33-.34.68-.66,1-1a.53.53,0,0,1,.66,0l1.27,1.25,43.53,43.89,48.79,49.23c.42.42.83.85,1.24,1.28A1.92,1.92,0,0,1,240.84,355.34Z"/><path fill="#fff" d="M334.56,168.35c-.13,3.37-.2,6.77-.41,10.16-.21,3.57-.57,7.13-1.06,10.68a159.25,159.25,0,0,1-13.4,45.59,173.51,173.51,0,0,1-18.44,30.75A185.92,185.92,0,0,1,287,282.45c-1.31,1.38-2.67,2.72-4,4.07L254.5,314.91c-.42.42-.87.81-1.31,1.21a.21.21,0,0,1-.32,0c-.31-.27-.64-.53-.93-.82l-11.52-11.72-13.14-13.39-30.17-30.73-21.65-22q-8.27-8.41-16.52-16.84c-.33-.34-.65-.69-.95-1.06a.35.35,0,0,1,0-.33c.26-.32.54-.63.83-.93l19.61-20.05,36.47-37.3L232,143.4l17.61-18c.37-.38.72-.79,1.06-1.2a.31.31,0,0,0,0-.32,10.41,10.41,0,0,0-.83-.93l-7-6.87L225.12,98.68a10.41,10.41,0,0,0-.94-.82.33.33,0,0,0-.33,0,10.4,10.4,0,0,0-.92.84q-4.94,5-9.87,10.09L181.8,140.7l-19.38,19.79-19.37,19.78q-4.62,4.72-9.25,9.45c-.33.34-.69.66-1,1a.4.4,0,0,1-.47-.1c-.33-.57-.67-1.13-1-1.7a182.81,182.81,0,0,1-16.59-41.54q-1.89-7.19-3.13-14.49c-.5-2.94-.92-5.89-1.23-8.85s-.53-5.82-.74-8.73a134.43,134.43,0,0,1-.16-13.76c.09-2.68.2-5.36.52-8,.2-1.6.3-3.21.49-4.8.23-1.84.47-3.67.78-5.49q1.06-6.34,2.65-12.58a148.92,148.92,0,0,1,11.36-30.21,173,173,0,0,1,18-28.31c2.59-3.34,5.3-6.59,8.09-9.77.35-.4.74-.78,1.07-1.2A2,2,0,0,1,154,.45,188,188,0,0,1,173.39.09a38.79,38.79,0,0,1,4.45.26c.24,0,.48,0,.72.05,2.49.11,5,.42,7.45.68,2.9.31,5.78.74,8.65,1.23a157.72,157.72,0,0,1,17.53,4,165.23,165.23,0,0,1,50,24.23,170.74,170.74,0,0,1,25.9,22.66,174.12,174.12,0,0,1,31.46,47,169,169,0,0,1,10.29,29.66q1.51,6.17,2.53,12.43c.5,3.12.93,6.24,1.24,9.39.37,3.62.65,7.24.74,10.88C334.39,164.51,334.49,166.42,334.56,168.35Z"/><path fill="#fff" d="M0,163.52c.06-2.62.08-5.24.18-7.86.1-2.26.32-4.52.55-6.77.3-3,.79-6,1.26-9a181.35,181.35,0,0,1,5.48-24A164.09,164.09,0,0,1,20.19,85.21,155.22,155.22,0,0,1,39.11,57.76,163.54,163.54,0,0,1,77,25.47a173.52,173.52,0,0,1,23.71-12.31c.38-.16.77-.31,1.16-.45a.23.23,0,0,1,.16,0c.15,0,.19.14.11.28-.26.46-.52.93-.8,1.38a196.25,196.25,0,0,0-20.7,45.78,180.82,180.82,0,0,0-4.93,20.3c-.64,3.51-1.16,7-1.62,10.59-.22,1.59-.35,3.2-.48,4.8-.21,2.44-.39,4.87-.56,7.31-.06.71-.07,1.43-.09,2.14-.1,4.12-.13,8.23,0,12.34.09,3,.27,6,.58,8.92.17,1.66.29,3.33.48,5,.23,1.95.47,3.91.78,5.85.48,2.94,1,5.87,1.59,8.79q1.69,8.33,4.18,16.44a201,201,0,0,0,15.17,36.18q4.69,8.75,10.11,17.06c.22.35.43.71.62,1.07a.37.37,0,0,1,0,.34,11.84,11.84,0,0,1-.81.94l-9.51,9.69L74,250.51l-18.62,19c-2.59,2.64-5.16,5.28-7.74,7.92-.34.34-.68.67-1,1a.35.35,0,0,1-.48,0c-.27-.24-.53-.48-.77-.74a172.55,172.55,0,0,1-29.82-44.28A165.68,165.68,0,0,1,4.71,202.29c-1.15-4.81-2.12-9.65-2.84-14.55-.43-2.89-.81-5.78-1.08-8.69A148.07,148.07,0,0,1,0,163.52Z"/><path fill="#fff" d="M228.26,342.64c0,.11,0,.24-.11.32q-.6.66-1.23,1.29L206,365,170.34,400.6c-.43.42-.85.83-1.29,1.24a.55.55,0,0,1-.79,0L167,400.54l-15.35-15.47q-13.57-13.71-27.17-27.4L74.8,307.55c-.46-.47-.91-.94-1.36-1.42a.44.44,0,0,1,0-.63c.33-.34.66-.69,1-1q28.53-28.43,57.08-56.85c.34-.34.69-.66,1-1a.5.5,0,0,1,.65,0l1.28,1.25L178,291.82l48.8,49.23c.42.42.83.85,1.24,1.28A1.92,1.92,0,0,1,228.26,342.64Z"/></g></g></svg>