<?xml version="1.0" encoding="utf-8"?>
<!-- Generator: Adobe Illustrator 25.0.0, SVG Export Plug-In . SVG Version: 6.00 Build 0)  -->
<svg version="1.1" id="Signet" xmlns="http://www.w3.org/2000/svg" xmlns:xlink="http://www.w3.org/1999/xlink" x="0px" y="0px"
	 viewBox="0 0 697.5 400.6" style="enable-background:new 0 0 697.5 400.6;" xml:space="preserve">
<style type="text/css">
	.st0{fill-rule:evenodd;clip-rule:evenodd;fill:#FFAA33;}
	.st1{fill-rule:evenodd;clip-rule:evenodd;fill:#FFFFFF;}
	.st2{fill:#FFFFFF;}
</style>
<path id="_21" class="st0" d="M531.8,359.2l34.8-32.2c26.4-24.3,31.4-40.6,31.4-58.6c0-34.3-29.3-56.2-71.8-56.2
	c-36.4,0-62.6,15.3-76.5,38.5l38.8,21.6c7.4-11.9,19.5-17.9,33-17.9c15.8,0,23.8,7.1,23.8,19c0,7.7-2.1,16.1-16.9,29.8l-69.2,64.7
	v32.7H603v-41.4H531.8z M610.9,215.9v40.4h34.3v144.4h52.3V215.9H610.9z"/>
<path id="freiluft" class="st1" d="M49.4,48.3c0-8.6,4.1-12.7,11.3-12.7c3.6,0.1,7.1,1.1,10.2,2.9l8.4-24c-5.5-3.4-14.3-5-22.5-5
	C30.8,9.5,16.3,24.7,16.3,48v2.5H2.2v25.4h14.1v68h34v-68h22.2V50.5H49.4V48.3z M120.5,58.5V46.9H88.1v97h34V99.3
	c0-17,9.5-24,23.3-24c2.6,0,5.1,0.2,7.7,0.5V45.3C138.8,45.3,127.5,49.7,120.5,58.5L120.5,58.5z M270.1,95.5
	c0-32-23.3-50.3-51.9-50.3c-30.6,0-53.3,20.8-53.3,49.9c0,29,22.4,50.3,56.9,50.3c18.4,0,32-5.4,41.3-15.7l-17.9-18.6
	c-6.6,5.7-12.9,8.4-22.4,8.4c-12.5,0-20.9-5.7-23.8-15.6h70.5C269.7,101.3,270.1,98,270.1,95.5z M218.4,69.4
	c10.6,0,18.1,6.4,19.9,16.6h-39.7C200.5,75.9,207.8,69.4,218.4,69.4L218.4,69.4z M306.5,36.1c12.5,0,20.8-7.9,20.8-18.6
	C327.2,7.3,319,0,306.5,0s-20.8,7.9-20.8,18.1S293.9,36.1,306.5,36.1z M289.5,143.8h34v-97h-34L289.5,143.8L289.5,143.8z
	 M349.5,143.8h34V11.1h-34L349.5,143.8L349.5,143.8z M477.5,46.9v46.7c0,16.3-8.2,22.9-18.2,22.9c-10.2,0-16.1-5.9-16.1-20.9V46.9
	h-34v54.2c0,30.8,17.4,44.4,41.2,44.4c11.1,0,21.5-3.9,28.8-12v10.4h32.4v-97H477.5z M577.1,48.3c0-8.6,4.1-12.7,11.3-12.7
	c3.6,0.1,7.1,1.1,10.2,2.9l8.4-24c-5.5-3.4-14.3-5-22.5-5C558.5,9.5,544,24.7,544,48v2.5h-14.1v25.4H544v68h34v-68h22.2V50.5h-23.1
	V48.3z M679.6,116.1c-3.1,2-6.7,3.1-10.4,3c-6.1,0-10.2-3.9-10.2-11.1V75.9h22.2V50.5H659V25.2h-34v25.2h-14.1v25.4H625v32.6
	c0,24.9,14.5,37,39.4,37c8.9,0,17.7-1.8,23.6-5.5L679.6,116.1z"/>
<path class="st2" d="M642.8,307.1c0-1.3,0-2.6,0-4V170.3h31.6v136.7h-27.6C645.4,307.1,644.1,307.1,642.8,307.1z M646.8,303.1h23.6
	V174.3h-23.6V303.1z M229.9,308.7c-16.7,0-33.9-4.1-44-10.3l-1.5-0.9l11.8-27l2,1.2c8.6,5.3,21.2,8.6,32.8,8.6
	c13.2,0,13.2-3.4,13.2-4.6c0-3-7.6-4.1-15.7-5.2c-16.5-2.2-41.5-5.6-41.5-31.9c0-20.8,19.3-34.2,49.2-34.2c14.8,0,29.8,3.2,39.3,8.5
	l1.6,0.9l-11.8,26.8l-1.9-1.1c-8.2-4.6-17.5-7-26.9-6.9c-10,0-13.6,2.5-13.6,4.8c0,3.2,7.8,4.4,16,5.6c16.3,2.4,41,5.9,41,31.8
	C279.8,295.4,260.2,308.7,229.9,308.7z M189.5,295.9c9.6,5.3,25.5,8.8,40.4,8.8c27.9,0,45.9-11.7,45.9-29.8
	c0-22.5-20.8-25.5-37.6-27.9c-10.5-1.5-19.5-2.8-19.5-9.5c0-3.3,2.3-8.8,17.6-8.8c0.1,0,0.2,0,0.3,0c9.2,0,18.4,2.2,26.6,6.4
	l8.6-19.4c-8.9-4.4-22.4-7.1-35.7-7.1c-27.5,0-45.2,11.9-45.2,30.2c0,22.8,21.1,25.6,38,27.9c10.3,1.4,19.2,2.6,19.2,9.1
	c0,7.7-9.8,8.6-17.2,8.6c-11.4,0-23.8-3.1-32.9-8.1L189.5,295.9z M132.9,308.7c-34.7,0-58.9-21.5-58.9-52.3
	c0-30.1,23.3-51.9,55.3-51.9c14.9,0,28.4,4.8,38,13.7c10.4,9.5,15.9,22.8,15.9,38.6c0,1.8-0.2,4-0.3,6c-0.1,0.9-0.1,1.7-0.2,2.5
	l-0.1,1.9h-69.5c3.3,7.5,10.6,11.6,21,11.6c8.6,0,14.5-2.2,21.1-7.9l1.4-1.2l20.5,21.3l-1.2,1.4C166,303.2,151.6,308.7,132.9,308.7z
	 M129.4,208.5c-29.7,0-51.3,20.2-51.3,47.9c0,13.6,5.3,25.9,14.8,34.5c10,9,23.8,13.8,40.1,13.8c16.9,0,29.5-4.5,38.6-13.7
	l-15.3-15.9c-6.8,5.4-13.3,7.7-22.2,7.7c-13.2,0-22.6-6.2-25.7-17l-0.7-2.6h71.3c0-0.2,0-0.5,0.1-0.7c0.2-2,0.3-4,0.3-5.7
	C179.3,227.9,159.2,208.5,129.4,208.5z M559.5,308.7c-22.8,0-38.1-12.8-38.1-31.9c0-14.1,7.8-31,45.1-31h17.1
	c-1.3-7.7-7.3-11.4-18.3-11.4c-9,0-18.9,3.1-25.1,8l-1.9,1.5l-13.3-26.9l1.5-1c11-7.3,27.4-11.6,43.9-11.6l0.8,0
	c33.2,0.3,50.7,16.4,50.7,46.7v55.8h-35.7V299C580.4,305.4,571.5,308.7,559.5,308.7z M566.5,249.8c-27.3,0-41.1,9.1-41.1,27
	c0,16.9,13.4,27.9,34.1,27.9c13.3,0,22.4-4.4,26.9-13.1l3.8,0.9v10.5h27.7v-51.8c0-28.4-16-42.7-47.6-42.7l-0.8,0
	c-14.5,0.1-29.3,3.9-39.3,10l9.6,19.4c6.8-4.5,16.6-7.4,25.6-7.4c17.9,0,22.1,9.4,22.6,17.3l0.1,2.1H566.5z M334,308.7
	c-26.7,0-41.4-13.9-41.4-39v-30.6h-14.1v-29.4h14.1v-25.2h38v25.2h22.2v29.4h-22.2v30.2c0,5.8,3,9.1,8.2,9.1
	c3.3,0.1,6.5-0.9,9.3-2.7l2.1-1.4L360,302l-1.3,0.9C352.7,306.6,344,308.7,334,308.7z M282.5,235.1h14.1v34.6
	c0,22.9,12.9,35,37.4,35c8.3,0,15.9-1.6,21.2-4.4l-7.1-20c-2.9,1.4-6,2.2-9.3,2.1c-7.4,0-12.2-5.1-12.2-13.1v-34.2h22.2v-21.4h-22.2
	v-25.2h-30v25.2h-14.1V235.1z M484.3,307.1h-37.7l-41.5-101h39.2l21.9,55.9c7.9-18.6,15.8-37.3,23.7-55.9c0.6,0,1.3,0,1.9,0h34.3
	L484.3,307.1z M449.3,303.1h32.4l38.4-93H492l-25.9,62.6l-24.6-62.6H411L449.3,303.1z M403.5,307.1h-36v-2h-2v-99h38V307.1z
	 M369.5,303.1h30v-93h-30V303.1z M52.1,307.1h-38v-68H0v-29.4h14.1v-0.5c0-25,16.3-40.5,42.4-40.5c9.4,0,18.2,2,23.6,5.3l1.4,0.8
	l-9.7,27.8l-2.1-1.2c-2.8-1.6-6-2.5-9.3-2.6c-6.2,0-9.2,3.5-9.2,10.7v0.2h23.1v29.4H52.1V307.1z M18.1,303.1h30v-68h22.2v-21.4H47.2
	v-4.2c0-9.5,4.7-14.7,13.3-14.7c3.1,0.1,6.2,0.8,9.1,2l7.1-20.2c-4.9-2.5-12.2-3.9-20.1-3.9c-24.1,0-38.4,13.6-38.4,36.5v4.5H4v21.4
	h14.1V303.1z M569,287.2l-1.1,0c-8.2-0.4-13.6-5-13.6-11.8c0-5.4,2.9-11.8,16.8-11.8h16.7v10.7l-0.1,0.3
	C585,282.5,578,287.2,569,287.2z M571.2,267.5c-12.8,0-12.8,5.7-12.8,7.8c0,4.8,4.1,7.8,10.7,7.8h0.5c6.9-0.2,12.1-3.6,14.3-9.6
	v-6.1H571.2z M151.8,249.3h-44.5l0.5-2.4c2.2-11.3,10.5-18.3,21.8-18.3c11.5,0,19.9,7,21.8,18.3L151.8,249.3z M112.2,245.3h34.7
	c-2.3-8-8.6-12.6-17.4-12.6C121,232.7,114.7,237.3,112.2,245.3z M384.5,199.4c-13.2,0-22.8-8.4-22.8-20.1c0-11.6,9.6-20.1,22.8-20.1
	c13.4,0,22.8,8,22.8,19.5C407.3,190.9,397.9,199.4,384.5,199.4z M384.5,163.2c-11,0-18.8,6.6-18.8,16.1c0,9.5,7.7,16.1,18.8,16.1
	c11.2,0,18.8-6.7,18.8-16.6C403.3,169.5,395.7,163.2,384.5,163.2z"/>
</svg>
