<svg xmlns="http://www.w3.org/2000/svg" viewBox="0 0 345.32 414.4"><path d="M345.22,173.74c-.1,3.5-.2,7-.41,10.52-.21,3.71-.62,7.33-1.14,11a166.88,166.88,0,0,1-13.82,47,179.55,179.55,0,0,1-19,31.77,198.13,198.13,0,0,1-14.65,17.44c-1.34,1.45-2.78,2.79-4.12,4.23l-29.41,29.3c-.41.42-.93.83-1.34,1.24a.2.2,0,0,1-.31,0h0c-.31-.31-.62-.51-.93-.82l-11.86-12.08-13.52-13.82-31.16-31.68-22.28-22.69-17-17.34a10,10,0,0,1-.92-1.13.19.19,0,0,1,0-.31c.3-.31.51-.62.82-.93l20.22-20.74L222,166.31l17.64-18.06,18.16-18.57c.42-.41.73-.82,1.14-1.24a.2.2,0,0,0,0-.31c-.31-.31-.52-.62-.83-.93l-7.22-7.11-18.26-18a6.21,6.21,0,0,0-.93-.82.19.19,0,0,0-.31,0c-.31.31-.62.51-.93.82-3.4,3.41-6.81,6.92-10.21,10.42L188,145.47l-20,20.42-20,20.43c-3.2,3.2-6.39,6.5-9.49,9.7l-1,1a.46.46,0,0,1-.52-.1c-.31-.62-.72-1.13-1-1.75a189.44,189.44,0,0,1-17.13-42.82,147.42,147.42,0,0,1-3.19-15c-.52-3-.93-6.09-1.24-9.08s-.52-6-.72-9c-.31-4.74-.31-9.49-.21-14.23.1-2.79.21-5.58.51-8.26.21-1.65.31-3.3.52-5,.21-1.86.52-3.82.83-5.68q1.08-6.49,2.78-13a151.73,151.73,0,0,1,11.76-31.15,180.38,180.38,0,0,1,18.57-29.2c2.69-3.41,5.47-6.81,8.36-10.11.41-.42.72-.83,1.14-1.24a2,2,0,0,1,1.65-.72,185.63,185.63,0,0,1,20-.42,33.37,33.37,0,0,1,4.54.31,1.69,1.69,0,0,1,.73.11c2.57.1,5.15.41,7.63.72,3,.31,6,.72,8.87,1.24A152.92,152.92,0,0,1,219.35,6.9a172.17,172.17,0,0,1,51.59,25,176,176,0,0,1,26.72,23.42,179.25,179.25,0,0,1,32.5,48.49,177.21,177.21,0,0,1,10.63,30.65c1,4.23,2,8.56,2.57,12.79.52,3.2.93,6.4,1.24,9.7.42,3.71.62,7.43.72,11.24A25.33,25.33,0,0,0,345.22,173.74Z" transform="translate(0 -0.3)" style="fill:#fff"/><path d="M0,168.68c.1-2.68.1-5.36.21-8.15.1-2.37.31-4.64.62-7,.3-3.09.82-6.19,1.34-9.28a187.5,187.5,0,0,1,5.67-24.76,176.81,176.81,0,0,1,13.1-31.68,161.26,161.26,0,0,1,19.5-28.37,167.09,167.09,0,0,1,39-33.12A183.46,183.46,0,0,1,103.9,13.61a5.39,5.39,0,0,1,1.23-.41h.21c.21,0,.21.1.1.31-.31.51-.51.92-.82,1.44A203.18,203.18,0,0,0,83.26,62.2a181.48,181.48,0,0,0-5.05,21c-.62,3.61-1.24,7.22-1.65,10.94-.21,1.65-.31,3.3-.52,5-.21,2.47-.41,5-.62,7.53a15.69,15.69,0,0,0-.1,2.17q-.16,6.35,0,12.69c.1,3.09.31,6.19.62,9.18.2,1.75.31,3.4.51,5.16.21,2,.52,4,.83,6.09.51,3,1,6.08,1.65,9.07a156.67,156.67,0,0,0,4.33,16.93A207.78,207.78,0,0,0,98.94,205.2c3.2,6,6.71,11.87,10.42,17.65.21.41.42.72.62,1.13a.19.19,0,0,1,0,.31c-.31.31-.51.62-.82.93l-9.8,10-23,23.21L57.16,278.05c-2.68,2.68-5.37,5.46-7.95,8.15l-1,1a.46.46,0,0,1-.51,0c-.31-.21-.52-.52-.83-.72a175.35,175.35,0,0,1-42-77.8A142.55,142.55,0,0,1,2,193.65c-.41-3-.83-6-1.13-9C.31,179.41,0,174.05,0,168.68Z" transform="translate(0 -0.3)" style="fill:#fff"/><path d="M235.55,353.47a.37.37,0,0,1-.11.31c-.41.41-.82.92-1.23,1.34l-21.67,21.46-36.83,36.73c-.42.41-.93.82-1.35,1.24a.64.64,0,0,1-.82,0h0l-1.34-1.35-15.89-16c-9.29-9.39-18.68-18.88-28.06-28.27L77,317.25l-1.45-1.44a.4.4,0,0,1,0-.62h0l1-1c19.6-19.61,39.2-39.11,58.91-58.71l1-1c.21-.21.52-.21.62,0l1.34,1.24,45,45.29,50.35,50.76c.42.41.83.93,1.24,1.34A2.93,2.93,0,0,1,235.55,353.47Z" transform="translate(0 -0.3)" style="fill:#fff"/></svg>