<svg xmlns="http://www.w3.org/2000/svg" xmlns:xlink="http://www.w3.org/1999/xlink" viewBox="0 0 1920 1090" preserveAspectRatio="none"><defs><linearGradient id="a" x1="253.29" y1="-253.29" x2="1675.39" y2="1168.81" gradientUnits="userSpaceOnUse"><stop offset="0" stop-color="#4facfe"/><stop offset="1" stop-color="#00f2fe"/></linearGradient><clipPath id="b"><rect width="1920" height="1099" style="fill:none"/></clipPath></defs><path d="M0,905.92c39.48,43.13,95.35,93,170.5,131.58,224.61,115.44,370.8,2,764-19,443.87-23.69,620.65,101.5,909-49a836.26,836.26,0,0,0,76.5-45.29V0H0Z" style="fill:url(#a)"/><g style="clip-path:url(#b)"><path d="M-18.5,391.5c39.05,48.61,103.7,116.51,200,166,224.61,115.44,370.8,2,764-19,443.87-23.69,620.65,101.5,909-49a841.61,841.61,0,0,0,140-92" style="fill:none;stroke:#fff;stroke-miterlimit:10;stroke-width:3px;opacity:0.4"/><path d="M-18.5,322.5c39.05,48.61,103.7,116.51,200,166,224.61,115.44,370.8,2,764-19,443.87-23.69,620.65,101.5,909-49a841.61,841.61,0,0,0,140-92" style="fill:none;stroke:#fff;stroke-miterlimit:10;stroke-width:3px;opacity:0.4"/><path d="M-18.5,258.5c39.05,48.61,103.7,116.51,200,166,224.61,115.44,370.8,2,764-19,443.87-23.69,620.65,101.5,909-49a841.61,841.61,0,0,0,140-92" style="fill:none;stroke:#fff;stroke-miterlimit:10;stroke-width:3px;opacity:0.35000000000000003"/><path d="M-18.5,190.5c39.05,48.61,103.7,116.51,200,166,224.61,115.44,370.8,2,764-19,443.87-23.69,620.65,101.5,909-49a841.61,841.61,0,0,0,140-92" style="fill:none;stroke:#fff;stroke-miterlimit:10;stroke-width:3px;opacity:0.30000000000000004"/><path d="M-18.5,120.5c39.05,48.61,103.7,116.51,200,166,224.61,115.44,370.8,2,764-19,443.87-23.69,620.65,101.5,909-49a841.61,841.61,0,0,0,140-92" style="fill:none;stroke:#fff;stroke-miterlimit:10;stroke-width:3px;opacity:0.25"/><path d="M-18.5,53.5c39.05,48.61,103.7,116.51,200,166,224.61,115.44,370.8,2,764-19,443.87-23.69,620.65,101.5,909-49a841.61,841.61,0,0,0,140-92" style="fill:none;stroke:#fff;stroke-miterlimit:10;stroke-width:3px;opacity:0.25"/><path d="M-18.5-6.5C20.55,42.11,85.2,110,181.5,159.5c224.61,115.44,370.8,2,764-19,443.87-23.69,620.65,101.5,909-49a841.61,841.61,0,0,0,140-92" style="fill:none;stroke:#fff;stroke-miterlimit:10;stroke-width:3px;opacity:0.2"/><path d="M-18.5-62.5C20.55-13.89,85.2,54,181.5,103.5c224.61,115.44,370.8,2,764-19,443.87-23.69,620.65,101.5,909-49a841.61,841.61,0,0,0,140-92" style="fill:none;stroke:#fff;stroke-miterlimit:10;stroke-width:3px;opacity:0.15"/><path d="M-18.5-117.5C20.55-68.89,85.2-1,181.5,48.5c224.61,115.44,370.8,2,764-19,443.87-23.69,620.65,101.5,909-49a841.61,841.61,0,0,0,140-92" style="fill:none;stroke:#fff;stroke-miterlimit:10;stroke-width:3px;opacity:0.1"/><path d="M-18.5-171.5C20.55-122.89,85.2-55,181.5-5.5c224.61,115.44,370.8,2,764-19,443.87-23.69,620.65,101.5,909-49a841.61,841.61,0,0,0,140-92" style="fill:none;stroke:#fff;stroke-miterlimit:10;stroke-width:3px;opacity:0.05"/><path d="M-18.5,457.5c39.05,48.61,103.7,116.51,200,166,224.61,115.44,370.8,2,764-19,443.87-23.69,620.65,101.5,909-49a841.61,841.61,0,0,0,140-92" style="fill:none;stroke:#fff;stroke-miterlimit:10;stroke-width:3px;opacity:0.4"/><path d="M-18.5,523.5c39.05,48.61,103.7,116.51,200,166,224.61,115.44,370.8,2,764-19,443.87-23.69,620.65,101.5,909-49a841.61,841.61,0,0,0,140-92" style="fill:none;stroke:#fff;stroke-miterlimit:10;stroke-width:3px;opacity:0.4"/><path d="M-18.5,591.5c39.05,48.61,103.7,116.51,200,166,224.61,115.44,370.8,2,764-19,443.87-23.69,620.65,101.5,909-49a841.61,841.61,0,0,0,140-92" style="fill:none;stroke:#fff;stroke-miterlimit:10;stroke-width:3px;opacity:0.4"/><path d="M-29.5,653.5C9.55,702.11,74.2,770,170.5,819.5c224.61,115.44,370.8,2,764-19,443.87-23.69,620.65,101.5,909-49a841.61,841.61,0,0,0,140-92" style="fill:none;stroke:#fff;stroke-miterlimit:10;stroke-width:3px;opacity:0.4"/><path d="M-29.5,707.5C9.55,756.11,74.2,824,170.5,873.5c224.61,115.44,370.8,2,764-19,443.87-23.69,620.65,101.5,909-49a841.61,841.61,0,0,0,140-92" style="fill:none;stroke:#fff;stroke-miterlimit:10;stroke-width:3px;opacity:0.4"/><path d="M-29.5,762.5C9.55,811.11,74.2,879,170.5,928.5c224.61,115.44,370.8,2,764-19,443.87-23.69,620.65,101.5,909-49a841.61,841.61,0,0,0,140-92" style="fill:none;stroke:#fff;stroke-miterlimit:10;stroke-width:3px;opacity:0.4"/><path d="M-29.5,816.5C9.55,865.11,74.2,933,170.5,982.5c224.61,115.44,370.8,2,764-19,443.87-23.69,620.65,101.5,909-49a841.61,841.61,0,0,0,140-92" style="fill:none;stroke:#fff;stroke-miterlimit:10;stroke-width:3px;opacity:0.4"/></g></svg>